<?xml version="1.0" standalone="no"?>
<!DOCTYPE svg PUBLIC "-//W3C//DTD SVG 20010904//EN"
 "http://www.w3.org/TR/2001/REC-SVG-20010904/DTD/svg10.dtd">
<svg version="1.0" xmlns="http://www.w3.org/2000/svg"
 width="500.000000pt" height="490.000000pt" viewBox="0 0 500.000000 490.000000"
 preserveAspectRatio="xMidYMid meet">
<metadata>
Created by potrace 1.15, written by Peter Selinger 2001-2017
</metadata>
<g transform="translate(0.000000,490.000000) scale(0.100000,-0.100000)"
fill="#000000" stroke="none">
<path d="M2300 4814 c-87 -8 -316 -46 -395 -66 -594 -148 -1106 -507 -1440
-1009 -73 -110 -177 -304 -223 -419 -207 -516 -218 -1123 -30 -1642 29 -79 33
-85 46 -67 18 25 57 24 76 -3 8 -12 13 -25 11 -28 -3 -4 2 -13 10 -20 19 -16
19 -54 0 -70 -8 -7 -25 -10 -40 -6 -29 7 -29 7 26 -99 186 -362 499 -697 858
-919 525 -324 1161 -441 1771 -325 96 19 309 75 319 84 2 3 -2 18 -9 34 -8 21
-10 55 -5 110 8 87 -2 121 -35 121 -11 0 -20 7 -20 15 0 22 46 19 70 -5 18
-18 20 -33 20 -129 0 -124 7 -138 59 -120 22 8 31 17 31 33 0 24 -28 56 -48
56 -7 0 -12 7 -12 15 0 17 58 35 113 35 30 0 40 -5 47 -23 8 -20 9 -20 9 9 1
36 -28 78 -70 99 -16 9 -29 22 -29 30 0 18 5 18 33 4 69 -36 119 -118 97 -159
-6 -12 -10 -23 -8 -25 11 -11 200 93 350 192 265 176 535 457 700 726 229 376
341 776 341 1217 0 277 -32 479 -115 725 -285 849 -1007 1453 -1918 1605 -122
20 -472 35 -590 24z m164 -66 c8 -31 -11 -48 -28 -25 -14 18 -70 23 -93 9 -21
-13 -34 -65 -28 -105 8 -46 39 -77 77 -77 24 0 28 4 28 30 0 21 -5 30 -16 30
-9 0 -14 6 -12 13 3 6 25 13 50 15 l46 3 -5 -48 c-3 -26 -9 -52 -14 -57 -17
-19 -124 -19 -158 -1 -76 39 -80 171 -7 216 21 13 50 19 92 19 55 0 62 -2 68
-22z m181 13 c3 -6 -2 -14 -11 -19 -21 -12 -32 -155 -14 -177 15 -18 64 -20
77 -2 14 16 24 165 12 172 -5 4 -9 13 -9 21 0 11 9 13 43 8 51 -8 57 -12 36
-27 -12 -9 -17 -35 -21 -91 -5 -71 -8 -82 -32 -103 -38 -32 -105 -32 -143 1
-27 23 -28 28 -26 110 1 47 -3 86 -8 86 -5 0 -9 7 -9 15 0 11 12 15 49 15 28
0 52 -4 56 -9z m-450 -22 c4 -6 0 -16 -8 -22 -13 -10 -13 -18 -1 -62 14 -55
18 -104 8 -130 -14 -34 -100 -57 -149 -39 -22 9 -40 48 -55 119 -8 37 -21 66
-34 76 -19 17 -19 17 20 28 53 15 74 14 74 -3 0 -8 -4 -17 -8 -20 -14 -8 17
-139 38 -160 22 -22 64 -16 75 11 11 29 -16 146 -38 166 -24 21 -15 34 28 40
17 2 33 5 37 6 4 0 10 -4 13 -10z m914 -42 c6 -8 16 -61 22 -118 7 -57 16
-110 22 -117 15 -20 3 -24 -47 -17 -29 5 -46 12 -46 21 0 8 7 14 16 14 11 0
14 6 8 23 -9 29 -4 26 -60 29 -46 3 -49 2 -49 -22 0 -14 -6 -25 -12 -24 -7 1
-22 2 -33 3 -19 1 -30 31 -11 31 5 0 42 43 82 95 39 52 77 95 84 95 7 0 18 -6
24 -13z m-1293 -63 c-4 -16 3 -53 20 -102 14 -42 27 -78 28 -80 8 -8 68 24 78
41 10 20 11 20 24 2 8 -10 14 -24 14 -30 0 -10 -157 -66 -182 -65 -12 0 -9 28
2 32 7 2 6 15 -3 38 -8 19 -21 56 -31 81 -11 32 -24 49 -39 53 -19 5 -20 7 -7
20 13 12 65 32 94 35 4 1 5 -11 2 -25z m1552 -14 c46 -21 49 -27 29 -55 -13
-17 -43 -13 -32 5 10 16 -36 40 -57 29 -25 -13 -23 -22 17 -75 48 -63 46 -102
-7 -130 -30 -15 -49 -13 -105 12 -40 18 -43 23 -32 52 10 26 39 30 39 4 0 -25
19 -42 47 -42 44 0 41 39 -6 100 -33 43 -35 67 -7 95 30 30 57 31 114 5z
m-1694 -37 c9 -22 -10 -41 -25 -26 -11 11 -19 8 -67 -23 -2 -1 4 -16 13 -33
16 -32 23 -33 58 -2 17 14 20 14 33 -4 18 -24 13 -41 -12 -38 -37 5 -46 -10
-29 -51 9 -21 19 -36 23 -34 4 2 19 10 34 17 14 7 29 23 32 34 4 17 7 18 20 7
33 -27 18 -46 -58 -78 -101 -43 -99 -43 -101 -2 -3 43 -61 160 -81 160 -35 0
-8 29 54 57 78 36 98 39 106 16z m1896 -53 c22 -11 40 -24 40 -29 0 -23 -14
-41 -32 -41 -13 0 -18 5 -15 14 6 15 -22 46 -40 46 -6 0 -16 -6 -22 -14 -9
-11 -4 -27 21 -74 32 -59 33 -62 16 -89 -26 -43 -66 -50 -123 -22 -57 28 -58
31 -43 64 14 31 32 28 36 -8 2 -19 11 -29 28 -33 54 -14 69 17 34 67 -12 15
-26 42 -32 59 -9 27 -7 34 13 56 28 30 66 31 119 4z m-2100 -74 c-6 -6 -15 -5
-23 2 -10 9 -19 8 -35 -4 l-21 -15 45 -74 c31 -52 52 -75 65 -75 32 0 21 -24
-21 -48 -42 -24 -63 -22 -53 3 5 14 -69 149 -88 161 -13 8 -50 -19 -45 -33 7
-18 -13 -27 -29 -13 -28 23 -15 38 83 93 l97 56 17 -22 c10 -13 13 -26 8 -31z
m1375 -5 c61 -10 146 -28 190 -40 714 -184 1287 -745 1469 -1441 54 -205 60
-261 60 -510 1 -252 -11 -346 -70 -550 -68 -238 -199 -493 -355 -690 -86 -109
-312 -330 -337 -330 -4 0 -4 41 1 91 9 91 -2 222 -20 240 -5 5 -31 5 -59 0
-27 -5 -110 -14 -185 -20 l-137 -11 -228 46 c-167 34 -262 48 -350 51 -140 6
-364 -11 -447 -34 -62 -17 -76 -12 -77 28 0 60 -158 342 -216 388 l-24 19 24
16 c17 11 23 22 19 36 -4 14 0 20 10 20 21 0 28 13 17 30 -7 11 -14 12 -34 2
-19 -9 -27 -8 -36 4 -10 11 -10 17 0 29 16 19 50 19 50 0 0 -9 6 -12 18 -8 24
9 32 24 25 50 -4 17 -1 23 12 23 13 0 15 6 10 30 -4 19 -3 30 4 30 6 0 11 11
11 25 0 30 15 33 30 4 8 -15 8 -24 0 -34 -6 -7 -10 -26 -8 -42 2 -18 -1 -27
-9 -25 -17 3 -16 -20 2 -44 14 -18 17 -16 19 15 1 8 6 16 13 18 13 5 6 -29
-14 -62 -10 -18 -15 -18 -33 -7 -34 21 -35 7 -2 -17 22 -15 28 -26 25 -45 -7
-34 31 -55 57 -31 10 9 27 15 37 14 10 -2 31 5 46 16 24 15 33 16 48 7 30 -19
36 -17 85 27 14 13 14 15 -1 24 -15 8 -15 10 0 28 10 10 15 25 11 34 -3 9 1
18 9 21 18 7 20 41 3 47 -9 3 -7 11 8 28 12 13 20 29 17 36 -2 6 1 14 6 18 6
3 11 17 11 30 0 13 5 27 11 31 6 3 8 17 5 30 -5 17 -2 24 9 24 9 0 15 9 15 24
0 13 6 29 14 35 7 6 11 22 9 35 -3 13 0 27 6 30 6 4 11 16 11 27 0 11 7 19 16
19 12 0 15 6 10 25 -5 18 -2 27 9 32 12 4 15 13 10 30 -4 16 -1 25 10 29 10 4
13 14 9 30 -8 30 21 34 31 4 5 -15 12 -19 31 -14 18 5 24 2 24 -11 0 -12 -5
-15 -20 -10 -26 8 -25 0 1 -37 l22 -30 -24 7 c-13 4 -30 14 -36 23 -7 8 -16
13 -19 9 -4 -4 -1 -13 6 -22 8 -10 9 -15 1 -15 -6 0 -11 -11 -11 -25 0 -14 -7
-28 -15 -31 -8 -4 -15 -14 -15 -24 0 -11 -4 -22 -10 -25 -5 -3 -10 -19 -10
-35 0 -16 -7 -30 -15 -34 -13 -4 -14 -10 -5 -26 9 -17 8 -20 -11 -20 -18 0
-20 -4 -14 -27 9 -37 15 -41 26 -20 6 9 14 17 19 17 17 0 11 -21 -12 -40 -22
-18 -22 -19 -4 -33 18 -13 17 -15 -8 -42 -26 -28 -34 -55 -16 -55 6 0 10 -7
10 -15 0 -23 -23 -17 -43 10 -18 25 -18 26 12 51 32 27 39 48 20 59 -13 9 -51
-25 -45 -41 2 -6 -3 -22 -11 -34 -13 -18 -14 -27 -4 -42 8 -13 8 -24 1 -38
-10 -18 -9 -18 17 -5 24 13 28 12 41 -6 12 -18 12 -22 -3 -33 -12 -8 -15 -19
-10 -39 8 -30 26 -35 45 -12 15 18 61 21 55 3 -7 -17 82 -54 118 -50 22 3 27
-1 27 -17 0 -14 6 -21 20 -21 11 0 20 -3 20 -7 0 -5 14 -16 31 -25 24 -14 35
-16 52 -7 18 10 24 8 43 -14 l23 -27 20 33 c28 46 53 125 46 146 -6 21 13 44
56 67 42 21 129 115 129 139 0 15 -12 7 -53 -36 -81 -87 -155 -127 -203 -109
-31 12 -82 109 -62 121 7 5 16 9 21 9 4 0 4 18 1 41 -7 44 2 70 49 132 16 21
27 40 24 43 -12 12 -71 -44 -88 -83 -24 -55 -39 -55 -39 1 0 24 -3 51 -6 60
-4 10 10 25 48 49 39 26 67 55 106 115 42 63 59 81 80 84 21 2 28 10 35 38 4
19 11 45 14 58 4 16 1 22 -11 22 -23 0 -20 39 6 67 29 31 41 29 33 -7 -6 -26
-4 -30 14 -30 11 0 25 8 30 18 15 27 89 58 109 46 27 -17 25 -33 -5 -39 -90
-20 -113 -30 -108 -46 4 -11 -4 -25 -20 -37 -14 -11 -25 -26 -25 -34 0 -16 32
-54 51 -60 8 -3 13 -33 15 -91 3 -79 1 -87 -15 -87 -13 0 -24 14 -35 40 -9 22
-22 40 -31 40 -16 0 -39 36 -30 50 3 5 1 11 -5 15 -12 8 -54 -37 -79 -85 -25
-47 -34 -100 -18 -100 6 -1 21 -15 32 -32 26 -42 78 -71 129 -74 41 -2 41 -3
39 -39 -2 -32 0 -35 17 -30 16 5 21 -1 30 -37 17 -65 18 -68 34 -68 19 0 32
95 41 285 1 39 3 73 4 76 0 4 21 28 46 55 42 44 75 95 75 116 0 5 -18 26 -40
45 -22 20 -40 42 -40 48 0 7 -7 18 -15 25 -9 7 -13 21 -10 31 3 10 0 27 -7 39
-12 19 -10 24 19 50 64 58 119 51 168 -20 29 -43 30 -48 26 -135 -2 -49 -4
-138 -4 -198 0 -101 2 -110 29 -154 30 -47 58 -72 69 -61 4 3 -2 19 -12 34
-48 73 -56 173 -23 295 11 43 19 106 19 149 0 65 -3 80 -27 115 -34 50 -104
88 -149 81 -38 -5 -46 16 -14 34 49 26 152 5 199 -40 55 -52 103 -170 104
-253 0 -46 1 -47 15 -28 8 12 20 21 28 21 20 0 29 -20 16 -33 -16 -16 -13 -34
10 -55 12 -12 19 -29 17 -43 -1 -13 1 -49 6 -78 8 -49 10 -53 22 -36 7 10 11
22 8 27 -3 5 3 12 13 14 12 4 24 21 32 52 7 26 18 61 24 79 8 23 7 42 -1 71
-7 22 -12 57 -12 79 0 24 -8 50 -18 64 -28 37 -32 54 -16 84 13 25 13 30 -2
46 -9 10 -25 21 -35 24 -23 8 -25 33 -3 42 11 4 23 -2 35 -18 10 -13 16 -25
14 -28 -3 -2 5 -15 15 -29 11 -13 20 -40 20 -58 0 -18 4 -36 10 -39 14 -9 29
-73 35 -144 5 -68 9 -81 30 -81 7 0 17 -9 20 -21 9 -28 41 -20 38 9 -2 12 2
22 7 22 6 0 10 -7 10 -15 0 -8 5 -15 10 -15 16 0 11 19 -11 43 -17 18 -20 30
-15 64 3 23 1 45 -4 48 -6 4 -9 26 -8 49 0 26 -5 52 -15 67 -10 13 -17 31 -17
41 0 9 -9 23 -21 32 -17 11 -20 21 -14 44 3 18 2 33 -4 37 -18 11 -12 23 8 18
10 -3 37 -34 60 -69 23 -35 45 -64 50 -64 4 0 13 11 19 25 6 14 16 25 22 25
15 0 0 83 -16 93 -8 4 -14 15 -14 23 0 17 -45 85 -84 125 -14 15 -50 41 -81
59 -93 53 -155 64 -293 51 -78 -8 -84 -11 -127 -50 -47 -43 -59 -48 -71 -29
-5 7 14 31 48 63 69 64 145 95 236 95 61 1 65 2 48 15 -12 9 -42 15 -75 15
-174 0 -335 -109 -421 -285 -49 -99 -58 -129 -73 -255 -11 -83 -14 -95 -32
-98 -12 -2 -30 7 -42 20 -18 19 -21 29 -14 60 9 39 1 100 -17 134 -6 11 -29
42 -51 69 -29 36 -42 61 -46 94 -10 78 -34 127 -79 168 -58 51 -88 73 -101 73
-5 0 -27 15 -48 34 -27 24 -40 44 -44 72 -10 69 -43 84 -43 20 0 -30 -15 -56
-32 -56 -13 0 -9 27 6 39 11 9 13 30 11 77 -4 68 2 78 24 43 18 -30 33 -5 18
29 -9 20 -8 26 6 33 9 6 17 17 17 24 0 20 -29 19 -36 0 -8 -19 -34 -20 -34 0
0 7 8 18 17 24 14 7 15 15 7 43 -6 18 -7 46 -3 61 10 37 2 56 -20 50 -20 -5
-34 26 -21 47 6 9 13 9 29 1 18 -10 21 -9 21 8 0 11 -10 39 -22 62 -19 37 -24
40 -51 35 -16 -3 -37 -6 -45 -6 -13 0 -13 -3 -4 -12 36 -36 -7 -62 -45 -27
l-25 24 7 -25 c17 -59 46 -65 85 -19 15 19 33 30 44 28 17 -4 16 -6 -4 -31
-13 -17 -19 -35 -15 -47 8 -25 -13 -32 -75 -24 l-50 6 -16 53 c-10 35 -30 70
-58 101 l-43 47 -35 -29 c-34 -29 -78 -98 -78 -122 0 -7 9 -17 20 -23 11 -6
20 -16 20 -22 0 -6 -11 -3 -25 6 -24 16 -27 15 -53 -3 -15 -10 -46 -22 -69
-25 l-43 -6 0 34 c0 19 -4 38 -10 41 -17 11 -11 45 8 45 11 0 23 -13 31 -35
16 -45 51 -48 80 -6 12 16 21 34 21 39 0 19 112 132 130 132 9 0 41 -25 70
-56 41 -44 57 -54 69 -47 23 14 25 33 3 33 -23 0 -112 82 -112 103 0 8 9 17
20 20 26 7 26 27 1 27 -11 0 -23 5 -26 10 -11 17 -25 11 -59 -26 -37 -40 -97
-53 -104 -23 -2 12 11 22 45 35 26 9 53 21 59 26 18 13 95 13 104 -1 4 -7 22
-12 41 -10 54 3 69 0 69 -16 0 -19 -31 -35 -69 -35 -20 0 -31 -5 -31 -14 0
-18 63 -17 82 2 7 7 20 12 30 12 10 0 21 8 24 18 3 9 12 32 20 50 13 31 13 34
-12 57 -15 14 -51 37 -80 52 -37 18 -54 33 -54 46 0 11 -11 28 -25 39 -14 11
-25 28 -25 38 0 10 -16 36 -35 57 l-34 37 -35 -39 c-21 -24 -35 -51 -36 -67 0
-17 -8 -31 -20 -38 -21 -11 -27 -35 -11 -45 5 -3 42 -2 81 1 63 6 71 9 67 26
-3 10 -1 18 5 18 5 0 12 -8 15 -19 2 -10 16 -24 29 -31 13 -8 24 -16 24 -19 0
-12 -215 -9 -222 3 -11 16 -71 -19 -114 -67 -24 -26 -32 -42 -26 -50 23 -28
51 -87 42 -87 -17 0 -33 -53 -21 -71 8 -14 -1 -27 -45 -71 l-54 -54 -3 -102
c-2 -98 -3 -102 -24 -102 -19 0 -23 -5 -23 -34 0 -35 15 -57 51 -77 11 -5 17
-14 13 -20 -3 -5 -3 -17 1 -27 5 -14 7 -14 15 -2 12 19 18 11 26 -30 6 -30 5
-33 -13 -28 -18 5 -23 -1 -33 -38 -8 -28 -24 -54 -44 -70 -95 -77 -124 -98
-151 -110 -71 -32 -95 -70 -95 -153 0 -75 -25 -125 -74 -147 -61 -27 -70 -40
-77 -114 -3 -38 -3 -89 1 -114 5 -33 3 -46 -7 -50 -7 -3 -13 -14 -13 -24 0
-10 -11 -29 -25 -42 -25 -24 -26 -27 -19 -105 4 -44 7 -88 6 -98 0 -9 3 -15 7
-12 11 6 12 113 1 120 -5 3 1 21 13 39 12 18 27 42 33 52 7 11 16 15 27 11 16
-6 16 -10 4 -34 -8 -16 -17 -56 -21 -91 l-7 -62 52 -51 52 -50 -29 -31 c-16
-17 -45 -41 -64 -54 -130 -88 -156 -104 -170 -104 -38 0 -129 125 -149 205
-15 59 -16 238 -1 265 12 23 13 63 1 56 -14 -9 -22 -73 -27 -222 -6 -159 -7
-156 89 -275 57 -71 86 -76 156 -29 53 36 65 38 57 8 -15 -54 -18 -112 -8
-146 7 -20 16 -56 22 -80 15 -58 73 -122 111 -122 27 0 50 -23 37 -36 -3 -3
-39 2 -79 11 -86 18 -89 18 -89 7 0 -5 24 -49 53 -98 81 -135 147 -297 151
-369 1 -28 -1 -30 -34 -29 -19 1 -127 20 -240 43 -200 40 -307 50 -382 36 -22
-4 -38 -13 -38 -21 0 -8 -1 -80 -1 -161 0 -123 2 -148 16 -155 8 -5 79 -11
158 -14 94 -4 164 -11 207 -24 105 -29 141 -38 210 -50 86 -15 97 -18 103 -34
5 -12 -18 -87 -46 -156 -4 -8 -12 -33 -20 -55 -16 -50 -25 -49 -147 5 -243
110 -489 283 -654 461 -36 39 -66 66 -66 60 0 -24 -28 -9 -46 24 -10 19 -22
35 -27 35 -4 0 -3 -9 4 -21 8 -16 8 -24 -1 -33 -9 -8 -14 -8 -17 0 -2 6 -11
20 -19 30 -15 18 -15 18 -8 -1 4 -11 9 -39 12 -62 4 -38 2 -43 -17 -43 -17 0
-21 6 -21 31 0 41 -14 64 -48 78 -20 9 -36 9 -56 1 -34 -13 -31 -40 7 -58 26
-13 38 -42 17 -42 -5 0 -10 -4 -10 -10 0 -5 11 -10 25 -10 29 0 47 -27 34 -52
-25 -46 -97 2 -87 57 4 19 0 25 -16 27 -12 2 -25 14 -30 31 -13 36 8 76 49 96
25 12 35 12 70 0 31 -12 45 -12 63 -3 47 23 46 28 -21 125 -167 242 -276 520
-323 819 -25 158 -25 444 -1 595 74 451 265 817 593 1135 227 220 467 368 776
479 123 44 287 78 498 105 87 11 418 -3 525 -23z m936 -41 c79 -41 90 -129 23
-195 -58 -59 -127 -59 -189 -1 -28 27 -35 41 -35 71 0 70 69 145 133 145 15 0
46 -9 68 -20z m-2661 -170 c18 0 73 -56 87 -88 21 -52 3 -92 -69 -152 -66 -55
-78 -60 -78 -29 0 31 -109 151 -132 143 -38 -12 -17 25 40 70 57 46 105 68
130 60 8 -2 17 -4 22 -4z m2918 -20 c51 -37 68 -65 51 -86 -19 -23 -39 -17
-39 12 0 32 -35 63 -72 64 -54 0 -117 -81 -104 -135 6 -22 41 -52 81 -69 6 -3
4 -9 -4 -15 -19 -12 -44 0 -93 47 -31 30 -38 43 -38 75 0 114 124 175 218 107z
m-1408 -58 c33 -16 56 -35 58 -46 4 -20 7 -20 -84 3 -70 18 -234 15 -289 -4
-11 -4 -30 -12 -43 -18 -34 -16 -52 6 -27 33 25 27 74 39 202 49 59 4 113 9
118 9 6 0 35 -11 65 -26z m1549 -76 c19 -19 30 -39 26 -46 -4 -7 -11 -8 -18
-1 -16 13 -151 -114 -143 -135 10 -25 -29 -16 -57 14 -32 33 -36 56 -8 47 22
-7 155 111 147 131 -5 12 2 24 14 24 3 0 21 -15 39 -34z m-3303 -22 c-3 -7 5
-21 18 -31 13 -10 51 -41 85 -70 55 -47 59 -53 45 -68 -9 -9 -24 -14 -33 -11
-9 2 -54 8 -101 12 l-85 6 48 -40 c32 -26 55 -38 68 -35 28 8 24 -19 -9 -50
-29 -28 -42 -27 -42 3 0 27 -125 129 -150 123 -26 -7 -27 18 0 42 18 16 27 17
116 5 52 -6 97 -10 100 -8 8 9 -87 79 -102 76 -27 -5 -26 17 2 45 26 27 50 27
40 1z m3454 -139 c11 -13 5 -28 -36 -93 -26 -42 -57 -95 -68 -116 l-20 -39
-28 32 c-30 34 -32 58 -6 53 28 -5 29 29 3 64 -29 38 -54 44 -62 14 -7 -28
-27 -25 -48 6 -9 14 -15 27 -13 28 2 1 26 7 53 13 28 6 82 20 120 31 87 25 90
25 105 7z m-3605 -150 c55 -14 110 -25 122 -25 29 0 29 -13 1 -50 -23 -32 -48
-40 -48 -15 0 8 -2 15 -4 15 -2 0 -11 3 -20 6 -22 9 -73 -71 -57 -90 7 -8 19
-12 27 -9 19 7 18 -16 -3 -39 -19 -21 -33 -23 -33 -6 0 7 -30 57 -66 110 -55
81 -64 101 -54 113 16 19 17 19 135 -10z m3747 -38 c76 -108 85 -126 68 -137
-25 -16 -43 -12 -37 9 5 21 -9 51 -25 51 -20 0 -158 -92 -158 -105 0 -30 -19
-23 -44 16 -27 40 -27 63 -1 53 8 -3 50 15 94 42 78 46 79 47 65 70 -9 12 -21
21 -29 18 -22 -9 -28 16 -9 31 11 8 22 15 26 15 3 0 26 -28 50 -63z m-1824
-119 c62 -43 75 -68 76 -151 2 -110 -30 -210 -84 -268 -36 -39 -123 -82 -165
-82 -52 0 -146 46 -185 90 -57 64 -103 308 -68 351 21 26 116 82 148 89 21 4
36 1 48 -10 9 -8 24 -16 32 -18 25 -4 68 12 74 27 8 22 72 7 124 -28z m-2173
-59 c0 -7 35 -33 78 -58 73 -41 80 -43 95 -27 9 9 17 31 17 48 0 36 12 43 39
23 18 -14 17 -17 -28 -90 -26 -41 -53 -75 -59 -75 -7 0 -17 9 -22 21 -14 29
-149 101 -164 86 -7 -7 -14 -8 -21 -1 -12 12 37 97 53 91 7 -2 12 -10 12 -18z
m4125 -25 c23 -40 21 -75 -4 -55 -20 17 -171 -59 -179 -89 -7 -28 -22 -19 -47
30 -20 39 -15 55 13 44 15 -5 176 74 175 85 -3 34 17 26 42 -15z m-4198 -100
c2 -8 43 -33 93 -55 50 -22 94 -44 99 -49 19 -19 -16 -37 -96 -49 -46 -7 -90
-15 -98 -18 -24 -8 88 -54 116 -47 28 7 30 -5 8 -47 -15 -29 -39 -35 -39 -10
0 19 -171 91 -184 78 -17 -17 -26 1 -15 30 10 28 10 29 179 59 l40 7 -54 24
c-31 14 -64 22 -76 19 -32 -8 -36 2 -18 40 18 36 39 45 45 18z m4267 -49 c61
-52 64 -133 6 -184 -64 -56 -166 -50 -204 12 -44 73 -28 142 42 176 59 29 118
28 156 -4z m-2467 -132 c23 -21 23 -29 -3 -84 -24 -51 -81 -114 -123 -136 -24
-13 -31 -13 -42 -1 -15 15 -9 78 7 78 5 0 9 5 9 11 0 6 12 27 27 47 15 20 28
39 30 41 2 2 6 1 9 -2 4 -4 2 -12 -4 -19 -16 -21 -52 -88 -52 -98 0 -36 65 31
116 120 14 25 16 34 7 37 -13 5 -18 23 -6 23 3 0 15 -7 25 -17z m-1920 -71 c7
-25 155 -76 193 -66 21 5 26 4 22 -7 -3 -8 -11 -34 -18 -58 l-12 -44 -21 26
c-26 31 -165 80 -203 71 -23 -6 -25 -5 -18 17 12 38 35 79 44 79 5 0 11 -8 13
-18z m4497 -38 c9 -21 9 -30 -2 -43 -7 -9 -37 -44 -66 -78 -29 -35 -49 -63
-45 -63 30 0 124 35 124 46 0 27 28 14 39 -17 14 -42 14 -49 -4 -49 -8 0 -15
5 -15 11 0 7 -7 8 -17 4 -24 -9 -192 -55 -204 -55 -25 0 -3 48 51 111 33 38
60 72 60 75 0 6 -27 -1 -87 -23 -24 -9 -43 -23 -46 -34 -9 -32 -22 -21 -33 26
-11 48 -3 65 21 45 11 -9 22 -10 42 -2 16 6 52 16 81 23 31 8 58 21 63 31 13
25 24 23 38 -8z m-2414 -30 c14 -9 53 -19 88 -21 52 -4 71 -1 105 16 45 23 62
21 62 -8 0 -10 9 -30 20 -43 l19 -25 -41 -42 c-32 -32 -38 -41 -23 -41 10 0
35 18 56 40 21 22 40 36 44 31 7 -12 -41 -68 -65 -76 -28 -9 -25 -29 5 -45 33
-17 28 -44 -8 -48 -23 -3 -27 0 -27 23 0 18 -7 28 -24 34 -13 5 -26 17 -29 25
-5 12 -20 16 -56 16 -44 0 -49 -2 -44 -20 5 -17 0 -20 -29 -20 -48 0 -163 53
-182 83 -18 28 2 30 34 3 36 -30 65 -39 106 -34 27 4 27 5 -13 16 -24 7 -54
23 -69 35 l-26 23 29 47 c15 25 32 47 36 47 4 0 19 -7 32 -16z m-2124 -55 c20
-10 20 -11 -5 -34 -38 -35 -34 -63 10 -71 40 -7 55 5 47 37 -4 15 0 19 20 19
33 0 43 -16 23 -36 -9 -8 -16 -22 -16 -29 0 -19 66 -31 84 -16 22 18 27 -2 13
-49 -12 -43 -37 -67 -37 -36 0 15 -22 23 -144 55 -28 7 -44 7 -52 0 -28 -23
-31 3 -9 75 32 103 32 104 66 85z m2558 -102 c31 -13 31 -13 11 -32 -23 -21
-26 -41 -7 -52 25 -15 60 -71 54 -87 -9 -22 -30 -20 -25 2 7 24 -18 60 -32 46
-6 -6 -6 -23 1 -48 9 -32 8 -41 -8 -58 -13 -15 -15 -22 -6 -25 8 -3 11 -14 7
-29 -4 -14 -2 -24 2 -23 25 4 44 -3 44 -16 0 -17 -11 -20 -26 -5 -16 16 -38
-5 -27 -25 8 -13 6 -22 -8 -36 -11 -11 -19 -24 -19 -30 0 -19 35 -5 45 19 11
25 25 29 25 7 0 -8 -4 -15 -10 -15 -5 0 -10 -9 -10 -21 0 -18 -4 -20 -30 -14
-36 8 -42 -13 -10 -33 30 -18 24 -29 -12 -24 -47 7 -79 52 -38 52 23 0 26 10
8 28 -9 9 -8 15 7 26 12 8 16 19 11 31 -3 10 -1 24 5 31 7 8 9 31 6 54 -3 22
-2 42 3 45 13 8 20 79 8 86 -9 6 -8 12 2 24 12 15 12 19 -3 29 -12 10 -14 15
-4 25 9 9 9 16 -1 31 -6 10 -9 26 -6 35 7 18 5 18 43 2z m-816 -57 c3 -11 9
-19 14 -18 15 4 53 -23 53 -38 0 -9 -9 -18 -21 -21 -12 -3 -18 -11 -15 -19 7
-19 -49 -80 -59 -64 -5 8 -10 9 -18 1 -16 -16 11 -43 37 -35 20 6 20 6 4 -13
-10 -11 -18 -26 -19 -34 0 -8 -4 -4 -10 9 -10 27 -33 19 -24 -9 6 -18 4 -18
-35 -4 -35 12 -41 12 -37 1 3 -7 1 -18 -5 -24 -8 -8 -7 -16 2 -27 10 -12 10
-19 2 -27 -9 -9 -12 -9 -12 0 0 6 -16 26 -35 43 -19 18 -32 36 -29 40 9 15 24
10 24 -7 0 -21 34 -14 38 9 2 12 -3 17 -17 17 -27 0 -27 31 -1 85 20 43 44 72
103 123 44 37 53 39 60 12z m721 -71 c-10 -12 -44 -47 -75 -79 -57 -58 -121
-172 -134 -239 -17 -84 -90 -221 -117 -221 -15 0 -8 24 23 88 17 35 43 101 59
147 15 46 40 105 56 132 32 54 170 193 192 193 12 0 11 -4 -4 -21z m2078 -189
c17 -39 26 -49 40 -44 13 4 16 1 12 -10 -4 -10 2 -15 22 -18 34 -4 43 -25 12
-30 -12 -2 -29 -15 -38 -30 -14 -26 -14 -29 6 -42 12 -9 27 -29 34 -46 15 -36
1 -80 -36 -109 -13 -11 -24 -26 -24 -35 0 -13 -12 -16 -61 -16 -48 0 -60 3
-56 14 3 7 -7 26 -23 41 -52 50 -49 103 8 153 18 16 23 26 15 29 -7 2 -13 11
-13 19 0 8 -9 14 -20 14 -11 0 -20 4 -20 9 0 14 28 33 40 26 5 -3 10 1 10 9 0
9 6 16 13 16 7 0 21 23 32 50 11 28 21 50 22 50 2 0 13 -23 25 -50z m-4496
-67 c22 -60 20 -58 40 -42 16 12 17 12 12 -6 -4 -17 0 -20 20 -20 31 0 40 -21
13 -30 -10 -3 -27 -17 -36 -31 -16 -25 -16 -27 8 -53 55 -59 54 -93 -6 -150
-14 -13 -23 -29 -20 -37 4 -11 -8 -14 -56 -14 -54 0 -61 2 -61 20 0 10 -8 24
-19 29 -10 6 -26 27 -36 46 -14 31 -15 41 -5 66 7 16 23 38 36 48 21 16 23 23
14 46 -8 20 -15 25 -30 20 -11 -3 -20 -2 -20 3 0 17 29 34 46 28 12 -4 14 -1
9 14 -4 14 -2 18 7 15 12 -4 48 57 48 83 0 28 20 8 36 -35z m164 -553 c14 -27
4 -57 -25 -76 -20 -13 -22 -21 -18 -55 4 -23 1 -50 -7 -63 -20 -38 -80 -57
-125 -40 -18 7 -45 55 -45 79 0 9 -10 25 -22 34 -43 35 6 106 57 83 30 -14 36
-43 17 -81 -12 -27 -13 -36 -2 -56 17 -32 38 -39 67 -20 21 14 24 22 21 65 -2
26 -10 55 -16 63 -19 22 -20 72 -2 72 8 0 17 -11 20 -24 3 -14 11 -26 18 -27
7 -1 8 0 2 3 -11 5 -14 46 -3 56 14 15 53 6 63 -13z m4317 -65 c24 -17 38 -64
28 -95 -9 -27 -61 -53 -91 -46 -62 16 -84 88 -42 133 25 27 73 31 105 8z m-74
-173 c38 -36 37 -83 -3 -124 -17 -16 -30 -35 -29 -41 3 -29 -3 -48 -25 -74
-24 -29 -24 -29 -3 -28 12 0 23 -4 24 -10 2 -5 -6 -10 -17 -10 -11 0 -27 -11
-36 -23 -19 -27 -55 -28 -79 -2 -25 28 -13 68 23 75 42 9 56 20 67 50 8 23 6
30 -14 46 -29 24 -46 24 -69 1 -17 -17 -52 -19 -52 -3 0 14 37 41 67 50 20 6
40 4 61 -5 27 -11 34 -11 46 2 28 27 30 56 6 76 -29 23 -49 23 -75 -2 -14 -13
-25 -16 -35 -10 -12 7 -11 13 9 34 39 41 88 40 134 -2z m-4138 -144 c37 -68
67 -134 67 -146 1 -37 -26 -58 -59 -46 -34 11 -43 53 -18 78 10 9 14 23 11 31
-4 11 -12 7 -37 -16 -74 -69 -164 -8 -129 89 9 27 9 36 0 45 -10 9 -14 9 -17
0 -5 -14 -43 -18 -43 -5 0 4 7 18 16 30 21 31 64 26 81 -9 9 -18 10 -35 2 -62
-17 -63 20 -99 63 -60 25 23 23 64 -8 118 -24 44 -26 75 -5 75 5 0 40 -55 76
-122z m90 -243 c16 -15 25 -36 25 -55 0 -36 -38 -80 -69 -80 -84 0 -119 84
-59 140 30 27 73 26 103 -5z m3863 5 c46 -43 37 -107 -18 -130 -80 -33 -149
63 -90 126 29 30 78 32 108 4z m-93 -156 c41 -19 59 -60 42 -95 -7 -13 -33
-34 -60 -47 -53 -25 -57 -33 -24 -47 30 -14 28 -29 -6 -33 -34 -4 -57 13 -57
43 0 25 24 49 72 73 46 24 46 62 0 76 -29 8 -36 6 -60 -17 -18 -17 -32 -23
-41 -18 -29 18 34 80 82 81 11 0 34 -7 52 -16z m-1485 -328 c58 -9 161 -28
230 -41 69 -13 148 -27 175 -30 28 -3 70 -11 95 -17 37 -9 57 -7 102 6 31 9
72 16 91 16 20 0 39 5 42 10 3 6 29 10 56 10 34 0 48 -4 43 -11 -3 -6 -47 -38
-98 -71 -50 -33 -92 -61 -93 -62 -1 -1 16 0 38 2 113 11 198 -105 138 -189
-44 -62 -130 -79 -174 -34 -41 40 -29 95 21 95 33 0 49 -25 36 -55 -10 -21 -9
-25 5 -25 9 0 34 12 55 26 40 28 51 56 19 47 -20 -5 -51 20 -51 42 0 7 7 21
16 29 14 15 13 17 -11 26 -36 14 -48 13 -42 -4 7 -19 -20 -56 -42 -56 -37 0
-55 51 -28 79 6 7 -22 -6 -63 -28 -86 -46 -237 -110 -332 -141 -58 -19 -66
-24 -82 -61 -21 -48 -53 -66 -85 -50 -33 18 -27 42 8 35 23 -5 32 -2 40 14 13
25 14 35 2 27 -5 -3 -69 -17 -143 -31 -167 -32 -431 -43 -629 -24 -129 12
-158 18 -131 27 6 3 12 12 12 20 0 30 53 125 76 135 18 8 30 33 54 105 16 52
30 101 30 109 0 8 3 15 8 15 4 1 16 3 27 4 47 7 230 47 239 52 14 9 123 20
186 18 30 -1 102 -9 160 -19z m958 -45 c-4 -26 -1 -30 25 -35 37 -7 31 -28
-11 -37 -41 -8 -82 -36 -82 -54 0 -20 5 -19 59 12 56 31 97 27 107 -11 15 -63
-90 -132 -146 -96 -13 9 -13 11 0 20 8 5 25 10 37 10 26 0 81 45 70 56 -4 5
-27 -2 -50 -14 -74 -39 -128 -22 -111 35 4 16 6 34 5 41 -1 6 6 12 17 12 27 0
42 20 42 57 0 27 4 33 21 33 18 0 21 -5 17 -29z m-2653 -91 c70 -33 83 -52 60
-86 -8 -13 -15 -33 -15 -44 0 -29 -26 -76 -45 -84 -24 -9 -80 -7 -108 3 -73
28 -101 115 -52 161 21 20 28 22 50 12 45 -21 23 -92 -24 -79 -33 8 -12 -22
30 -43 40 -21 111 -29 77 -9 -22 13 -23 52 -2 70 14 12 14 14 -5 21 -13 4 -19
13 -15 23 8 19 17 19 54 0 17 -9 30 -12 30 -7 0 5 -27 21 -60 37 -59 28 -67
35 -53 48 9 10 9 10 78 -23z m169 -143 c30 -45 -4 -87 -60 -73 -24 6 -25 6
-10 -22 25 -48 83 -65 125 -36 20 14 22 22 17 55 -7 45 6 58 28 27 20 -28 20
-57 2 -83 -18 -26 -4 -62 30 -77 23 -11 28 -10 45 11 23 28 24 49 3 72 -9 10
-14 25 -10 34 8 23 40 4 56 -34 25 -61 -24 -131 -93 -131 -23 0 -77 43 -77 61
0 5 -22 9 -49 9 -43 0 -55 5 -85 34 -41 38 -48 84 -21 136 24 46 75 55 99 17z
m356 -149 c18 -22 19 -22 54 -5 44 21 43 21 50 2 3 -9 -5 -20 -22 -29 -23 -12
-27 -21 -28 -58 -1 -23 -4 -52 -8 -64 -14 -40 51 -73 82 -42 17 17 15 58 -4
79 -21 23 -7 53 17 36 61 -45 44 -139 -29 -165 -33 -11 -88 7 -98 33 -3 8 -11
12 -16 9 -24 -15 -25 21 -2 51 41 54 28 105 -28 105 -30 0 -52 -25 -63 -72 -5
-18 -14 -28 -25 -28 -15 0 -16 6 -10 40 9 51 34 88 64 96 14 3 27 12 30 20 7
19 15 18 36 -8z m1427 -15 c25 -17 53 -68 53 -98 0 -25 -46 -65 -76 -65 -15 0
-42 10 -61 21 -26 16 -37 19 -46 10 -9 -9 -9 -14 1 -20 7 -4 10 -15 6 -24 -4
-13 -10 -14 -24 -7 -39 21 -33 81 9 95 11 3 40 -3 66 -15 36 -16 49 -18 66 -9
16 8 19 17 14 37 -8 34 -31 52 -66 52 -25 0 -45 21 -32 34 12 12 64 6 90 -11z
m-652 -62 c22 -10 50 -28 62 -40 21 -19 24 -20 70 -6 26 8 51 15 56 15 12 0
47 -39 47 -54 0 -42 -71 -62 -90 -26 -6 11 -17 20 -25 20 -11 0 -12 -5 -5 -26
17 -44 12 -96 -12 -121 -27 -29 -50 -29 -99 -1 -41 23 -61 19 -39 -7 22 -26
-4 -43 -30 -20 -24 22 -25 42 -3 67 21 24 47 23 82 -3 23 -17 32 -19 50 -10
22 12 29 63 12 90 -9 15 -36 12 -128 -15 -18 -5 -23 -2 -23 13 0 15 13 24 55
37 30 9 55 19 55 22 0 11 -68 44 -92 44 -28 0 -43 13 -33 30 9 15 46 12 90 -9z
m390 -46 c32 -31 32 -74 0 -109 -31 -34 -73 -34 -109 -1 -52 48 -17 135 54
135 19 0 40 -9 55 -25z"/>
<path d="M1247 4014 c-4 -4 -7 -22 -7 -39 0 -18 -6 -38 -14 -44 -7 -6 -19 -32
-27 -58 -9 -35 -29 -63 -75 -109 -65 -65 -81 -101 -69 -153 6 -26 2 -30 -40
-51 -43 -21 -105 -85 -118 -122 -4 -10 -13 -18 -22 -18 -20 0 -19 -24 1 -41
14 -12 20 -9 41 16 72 88 109 114 156 110 74 -7 75 -24 3 -60 -115 -58 -172
-156 -146 -250 12 -42 11 -47 -6 -60 -15 -11 -17 -16 -6 -27 10 -10 17 -10 32
0 25 15 30 15 30 -2 0 -8 -8 -16 -17 -19 -16 -3 -16 -5 2 -12 11 -5 32 -18 47
-31 29 -24 126 -60 135 -50 3 3 -6 10 -21 16 -30 11 -96 61 -96 73 0 13 37 8
50 -7 6 -8 32 -23 56 -32 36 -14 50 -15 70 -5 14 6 53 11 87 11 95 0 50 15
-55 18 -83 2 -97 6 -139 32 -25 17 -57 30 -72 30 -18 0 -31 10 -46 34 -23 37
-29 91 -8 82 6 -3 31 -11 55 -18 23 -7 42 -15 42 -19 0 -15 -21 -20 -35 -9
-10 8 -15 8 -20 0 -11 -18 25 -50 57 -50 17 0 28 -5 28 -14 0 -8 7 -17 16 -20
22 -8 26 -8 19 4 -3 6 5 10 19 10 13 0 26 -5 28 -12 3 -7 7 -8 10 -2 4 5 -7
24 -24 43 -22 25 -36 32 -54 28 -16 -3 -24 0 -24 9 0 8 8 14 18 15 18 1 30 2
172 14 46 3 88 9 93 12 6 3 26 7 46 8 20 2 49 6 65 10 l29 8 -7 -39 c-10 -52
-32 -92 -73 -135 l-34 -36 57 -6 c69 -7 109 -41 119 -100 7 -35 6 -38 -29 -52
-54 -23 -79 -19 -98 14 -23 41 -57 60 -135 77 -107 22 -116 15 -19 -16 49 -16
96 -36 105 -45 14 -14 13 -17 -11 -38 -23 -20 -27 -31 -31 -104 -4 -62 -2 -85
9 -94 7 -6 17 -27 21 -48 l7 -36 6 30 c5 27 9 30 45 32 22 0 65 6 95 11 30 5
58 8 63 5 4 -2 7 -30 8 -61 0 -58 17 -123 18 -74 1 13 5 31 10 41 6 11 6 33 0
60 -7 33 -6 50 6 73 11 22 12 35 4 50 -11 20 -4 74 12 94 5 7 -2 23 -20 43
-16 18 -32 45 -36 59 -9 39 -85 113 -107 106 -24 -7 -23 -3 13 73 25 53 30 74
26 108 -10 70 -45 121 -114 168 -34 23 -63 47 -63 52 0 17 72 32 105 23 17 -4
55 -31 85 -59 30 -28 56 -46 58 -40 3 10 -42 98 -57 111 -3 3 -11 14 -17 25
-6 11 -29 29 -52 40 -39 19 -41 22 -40 65 0 64 -13 90 -73 144 -54 49 -64 70
-88 179 -9 41 -23 62 -34 51z m32 -135 c11 -64 27 -89 72 -116 62 -37 79 -125
33 -168 -31 -29 -47 -31 -64 -10 -15 18 -42 19 -58 3 -9 -9 -15 -9 -24 0 -15
15 -54 16 -63 2 -8 -12 -45 -13 -64 -1 -9 6 -14 26 -13 56 0 44 4 51 66 111
62 60 66 67 66 108 0 96 33 106 49 15z"/>
<path d="M3694 4371 c-32 -19 -64 -74 -64 -108 0 -25 30 -53 58 -53 30 0 89
55 102 96 10 29 9 39 -4 59 -20 30 -50 32 -92 6z"/>
<path d="M1018 4184 c-16 -8 -28 -18 -28 -23 0 -14 111 -131 124 -131 20 0 49
37 49 63 0 32 -30 75 -64 93 -35 17 -47 17 -81 -2z"/>
<path d="M4555 3346 c-77 -34 -96 -101 -36 -126 37 -15 87 -1 131 37 73 61 -1
131 -95 89z"/>
</g>
</svg>
